<mxfile host="Electron" modified="2023-08-20T17:39:46.664Z" agent="Mozilla/5.0 (Windows NT 10.0; Win64; x64) AppleWebKit/537.36 (KHTML, like Gecko) draw.io/21.5.1 Chrome/112.0.5615.204 Electron/24.6.0 Safari/537.36" etag="zNaM7R7c9DST4Q1MjHuD" version="21.5.1" type="device">
  <diagram name="Страница 1" id="lVk9Px-xkpZWKN5TS4H4">
    <mxGraphModel dx="1036" dy="606" grid="1" gridSize="10" guides="1" tooltips="1" connect="1" arrows="1" fold="1" page="1" pageScale="1" pageWidth="827" pageHeight="1169" math="0" shadow="0">
      <root>
        <mxCell id="0" />
        <mxCell id="1" parent="0" />
        <mxCell id="qLjjrkmF7zRDrsset7Vm-2" value="&lt;div style=&quot;color: rgb(59, 59, 59); font-family: &amp;quot;Source Code Pro&amp;quot;, Consolas, &amp;quot;Courier New&amp;quot;, monospace; line-height: 20px;&quot;&gt;&lt;font style=&quot;font-size: 12px;&quot;&gt;Продукция Плиточка&lt;/font&gt;&lt;/div&gt;" style="ellipse;whiteSpace=wrap;html=1;align=center;fillColor=#dae8fc;strokeColor=#dae8fc;" vertex="1" parent="1">
          <mxGeometry x="290" y="20" width="210" height="70" as="geometry" />
        </mxCell>
        <mxCell id="qLjjrkmF7zRDrsset7Vm-3" value="&lt;div style=&quot;line-height: 18px;&quot;&gt;Товары&amp;nbsp;из&amp;nbsp;&lt;/div&gt;&lt;div style=&quot;line-height: 18px;&quot;&gt;Продукция&lt;/div&gt;&lt;div style=&quot;line-height: 18px;&quot;&gt;&amp;nbsp;Плиточка&lt;/div&gt;" style="ellipse;whiteSpace=wrap;html=1;align=center;fillColor=#e1d5e7;strokeColor=#9673a6;" vertex="1" parent="1">
          <mxGeometry x="120" y="160" width="100" height="70" as="geometry" />
        </mxCell>
        <mxCell id="qLjjrkmF7zRDrsset7Vm-4" value="&lt;div style=&quot;line-height: 18px;&quot;&gt;Блоки&amp;nbsp;&lt;/div&gt;&lt;div style=&quot;line-height: 18px;&quot;&gt;заборные&lt;/div&gt;" style="ellipse;whiteSpace=wrap;html=1;fillColor=#e1d5e7;strokeColor=#9673a6;" vertex="1" parent="1">
          <mxGeometry x="230" y="160" width="80" height="70" as="geometry" />
        </mxCell>
        <mxCell id="qLjjrkmF7zRDrsset7Vm-5" value="&lt;div style=&quot;line-height: 18px;&quot;&gt;&lt;div style=&quot;line-height: 18px;&quot;&gt;Тротуарная&amp;nbsp;&lt;/div&gt;&lt;div style=&quot;line-height: 18px;&quot;&gt;плитка&lt;/div&gt;&lt;/div&gt;" style="ellipse;whiteSpace=wrap;html=1;fillColor=#e1d5e7;strokeColor=#9673a6;" vertex="1" parent="1">
          <mxGeometry x="324" y="160" width="90" height="70" as="geometry" />
        </mxCell>
        <mxCell id="qLjjrkmF7zRDrsset7Vm-6" value="&lt;div style=&quot;line-height: 18px;&quot;&gt;Крышки&lt;/div&gt;" style="ellipse;whiteSpace=wrap;html=1;fillColor=#e1d5e7;strokeColor=#9673a6;" vertex="1" parent="1">
          <mxGeometry x="430" y="160" width="70" height="70" as="geometry" />
        </mxCell>
        <mxCell id="qLjjrkmF7zRDrsset7Vm-8" value="&lt;div style=&quot;line-height: 18px;&quot;&gt;&lt;div style=&quot;line-height: 18px;&quot;&gt;ХХХ&lt;/div&gt;&lt;/div&gt;" style="ellipse;whiteSpace=wrap;html=1;fillColor=#e1d5e7;strokeColor=#9673a6;" vertex="1" parent="1">
          <mxGeometry x="510" y="160" width="70" height="70" as="geometry" />
        </mxCell>
        <mxCell id="qLjjrkmF7zRDrsset7Vm-9" value="&lt;div style=&quot;line-height: 18px;&quot;&gt;&lt;div style=&quot;line-height: 18px;&quot;&gt;Бордюры&lt;/div&gt;&lt;/div&gt;" style="ellipse;whiteSpace=wrap;html=1;fillColor=#e1d5e7;strokeColor=#9673a6;" vertex="1" parent="1">
          <mxGeometry x="590" y="160" width="70" height="70" as="geometry" />
        </mxCell>
        <mxCell id="qLjjrkmF7zRDrsset7Vm-11" value="" style="endArrow=none;html=1;rounded=0;exitX=0.5;exitY=1;exitDx=0;exitDy=0;entryX=0.5;entryY=0;entryDx=0;entryDy=0;" edge="1" parent="1" source="qLjjrkmF7zRDrsset7Vm-2" target="qLjjrkmF7zRDrsset7Vm-3">
          <mxGeometry relative="1" as="geometry">
            <mxPoint x="330" y="310" as="sourcePoint" />
            <mxPoint x="490" y="310" as="targetPoint" />
          </mxGeometry>
        </mxCell>
        <mxCell id="qLjjrkmF7zRDrsset7Vm-12" value="" style="endArrow=none;html=1;rounded=0;exitX=0.5;exitY=1;exitDx=0;exitDy=0;entryX=0.655;entryY=-0.014;entryDx=0;entryDy=0;entryPerimeter=0;" edge="1" parent="1" source="qLjjrkmF7zRDrsset7Vm-2" target="qLjjrkmF7zRDrsset7Vm-4">
          <mxGeometry relative="1" as="geometry">
            <mxPoint x="405" y="100" as="sourcePoint" />
            <mxPoint x="180" y="170" as="targetPoint" />
          </mxGeometry>
        </mxCell>
        <mxCell id="qLjjrkmF7zRDrsset7Vm-13" value="" style="endArrow=none;html=1;rounded=0;exitX=0.5;exitY=1;exitDx=0;exitDy=0;entryX=0.5;entryY=0;entryDx=0;entryDy=0;" edge="1" parent="1" source="qLjjrkmF7zRDrsset7Vm-2" target="qLjjrkmF7zRDrsset7Vm-5">
          <mxGeometry relative="1" as="geometry">
            <mxPoint x="405" y="100" as="sourcePoint" />
            <mxPoint x="292" y="169" as="targetPoint" />
          </mxGeometry>
        </mxCell>
        <mxCell id="qLjjrkmF7zRDrsset7Vm-14" value="" style="endArrow=none;html=1;rounded=0;entryX=0.5;entryY=0;entryDx=0;entryDy=0;" edge="1" parent="1" target="qLjjrkmF7zRDrsset7Vm-6">
          <mxGeometry relative="1" as="geometry">
            <mxPoint x="400" y="90" as="sourcePoint" />
            <mxPoint x="379" y="170" as="targetPoint" />
          </mxGeometry>
        </mxCell>
        <mxCell id="qLjjrkmF7zRDrsset7Vm-15" value="" style="endArrow=none;html=1;rounded=0;exitX=0.5;exitY=1;exitDx=0;exitDy=0;entryX=0.5;entryY=0;entryDx=0;entryDy=0;" edge="1" parent="1" source="qLjjrkmF7zRDrsset7Vm-2" target="qLjjrkmF7zRDrsset7Vm-8">
          <mxGeometry relative="1" as="geometry">
            <mxPoint x="410" y="100" as="sourcePoint" />
            <mxPoint x="475" y="170" as="targetPoint" />
          </mxGeometry>
        </mxCell>
        <mxCell id="qLjjrkmF7zRDrsset7Vm-16" value="" style="endArrow=none;html=1;rounded=0;exitX=0.5;exitY=1;exitDx=0;exitDy=0;entryX=0.5;entryY=0;entryDx=0;entryDy=0;" edge="1" parent="1" source="qLjjrkmF7zRDrsset7Vm-2" target="qLjjrkmF7zRDrsset7Vm-9">
          <mxGeometry relative="1" as="geometry">
            <mxPoint x="405" y="100" as="sourcePoint" />
            <mxPoint x="555" y="170" as="targetPoint" />
          </mxGeometry>
        </mxCell>
        <mxCell id="qLjjrkmF7zRDrsset7Vm-17" value="&lt;div style=&quot;line-height: 18px;&quot;&gt;&lt;div style=&quot;line-height: 18px;&quot;&gt;Крышки&amp;nbsp;&lt;/div&gt;&lt;div style=&quot;line-height: 18px;&quot;&gt;Некондиция&lt;/div&gt;&lt;/div&gt;" style="ellipse;whiteSpace=wrap;html=1;fillColor=#d5e8d4;strokeColor=#82b366;" vertex="1" parent="1">
          <mxGeometry x="460" y="260" width="80" height="80" as="geometry" />
        </mxCell>
        <mxCell id="qLjjrkmF7zRDrsset7Vm-18" value="" style="endArrow=none;html=1;rounded=0;exitX=0.5;exitY=1;exitDx=0;exitDy=0;entryX=0.5;entryY=0;entryDx=0;entryDy=0;" edge="1" parent="1" target="qLjjrkmF7zRDrsset7Vm-17">
          <mxGeometry relative="1" as="geometry">
            <mxPoint x="466" y="230" as="sourcePoint" />
            <mxPoint x="440" y="300" as="targetPoint" />
          </mxGeometry>
        </mxCell>
        <mxCell id="qLjjrkmF7zRDrsset7Vm-19" value="&lt;div style=&quot;line-height: 18px;&quot;&gt;&lt;div style=&quot;line-height: 18px;&quot;&gt;&lt;div style=&quot;line-height: 18px;&quot;&gt;Вибролитье&lt;/div&gt;&lt;/div&gt;&lt;/div&gt;" style="ellipse;whiteSpace=wrap;html=1;fillColor=#e1d5e7;strokeColor=#9673a6;" vertex="1" parent="1">
          <mxGeometry x="250" y="340" width="80" height="70" as="geometry" />
        </mxCell>
        <mxCell id="qLjjrkmF7zRDrsset7Vm-20" value="&lt;div style=&quot;line-height: 18px;&quot;&gt;&lt;div style=&quot;line-height: 18px;&quot;&gt;&lt;div style=&quot;line-height: 18px;&quot;&gt;Вибропресс&lt;/div&gt;&lt;/div&gt;&lt;/div&gt;" style="ellipse;whiteSpace=wrap;html=1;fillColor=#e1d5e7;strokeColor=#9673a6;" vertex="1" parent="1">
          <mxGeometry x="370" y="340" width="90" height="70" as="geometry" />
        </mxCell>
        <mxCell id="qLjjrkmF7zRDrsset7Vm-21" value="" style="endArrow=none;html=1;rounded=0;exitX=0.5;exitY=1;exitDx=0;exitDy=0;entryX=0.5;entryY=0;entryDx=0;entryDy=0;" edge="1" parent="1" target="qLjjrkmF7zRDrsset7Vm-19">
          <mxGeometry relative="1" as="geometry">
            <mxPoint x="366" y="230" as="sourcePoint" />
            <mxPoint x="340" y="300" as="targetPoint" />
          </mxGeometry>
        </mxCell>
        <mxCell id="qLjjrkmF7zRDrsset7Vm-22" value="" style="endArrow=none;html=1;rounded=0;exitX=0.5;exitY=1;exitDx=0;exitDy=0;entryX=0.5;entryY=0;entryDx=0;entryDy=0;" edge="1" parent="1" source="qLjjrkmF7zRDrsset7Vm-5" target="qLjjrkmF7zRDrsset7Vm-20">
          <mxGeometry relative="1" as="geometry">
            <mxPoint x="376" y="240" as="sourcePoint" />
            <mxPoint x="305" y="350" as="targetPoint" />
          </mxGeometry>
        </mxCell>
        <mxCell id="qLjjrkmF7zRDrsset7Vm-23" value="&lt;div style=&quot;line-height: 18px;&quot;&gt;&lt;div style=&quot;line-height: 18px;&quot;&gt;&lt;div style=&quot;line-height: 18px;&quot;&gt;Старая&amp;nbsp;&lt;/div&gt;&lt;div style=&quot;line-height: 18px;&quot;&gt;плитка&lt;/div&gt;&lt;/div&gt;&lt;/div&gt;" style="ellipse;whiteSpace=wrap;html=1;fillColor=#d5e8d4;strokeColor=#82b366;" vertex="1" parent="1">
          <mxGeometry x="150" y="420" width="80" height="80" as="geometry" />
        </mxCell>
        <mxCell id="qLjjrkmF7zRDrsset7Vm-24" value="" style="endArrow=none;html=1;rounded=0;exitX=0.227;exitY=0.923;exitDx=0;exitDy=0;entryX=0.945;entryY=0.238;entryDx=0;entryDy=0;entryPerimeter=0;exitPerimeter=0;" edge="1" parent="1" source="qLjjrkmF7zRDrsset7Vm-19" target="qLjjrkmF7zRDrsset7Vm-23">
          <mxGeometry relative="1" as="geometry">
            <mxPoint x="281" y="410" as="sourcePoint" />
            <mxPoint x="210" y="520" as="targetPoint" />
          </mxGeometry>
        </mxCell>
        <mxCell id="qLjjrkmF7zRDrsset7Vm-25" value="&lt;div style=&quot;line-height: 18px;&quot;&gt;&lt;div style=&quot;line-height: 18px;&quot;&gt;&lt;div style=&quot;line-height: 18px;&quot;&gt;&lt;div style=&quot;line-height: 18px;&quot;&gt;Старый&amp;nbsp;&lt;/div&gt;&lt;div style=&quot;line-height: 18px;&quot;&gt;город&lt;/div&gt;&lt;/div&gt;&lt;/div&gt;&lt;/div&gt;" style="ellipse;whiteSpace=wrap;html=1;fillColor=#d5e8d4;strokeColor=#82b366;" vertex="1" parent="1">
          <mxGeometry x="580" y="440" width="80" height="80" as="geometry" />
        </mxCell>
        <mxCell id="qLjjrkmF7zRDrsset7Vm-26" value="&lt;div style=&quot;line-height: 18px;&quot;&gt;&lt;div style=&quot;line-height: 18px;&quot;&gt;&lt;div style=&quot;line-height: 18px;&quot;&gt;&lt;div style=&quot;line-height: 18px;&quot;&gt;Лофт&lt;/div&gt;&lt;/div&gt;&lt;/div&gt;&lt;/div&gt;" style="ellipse;whiteSpace=wrap;html=1;fillColor=#d5e8d4;strokeColor=#82b366;" vertex="1" parent="1">
          <mxGeometry x="490" y="440" width="80" height="80" as="geometry" />
        </mxCell>
        <mxCell id="qLjjrkmF7zRDrsset7Vm-27" value="&lt;div style=&quot;line-height: 18px;&quot;&gt;&lt;div style=&quot;line-height: 18px;&quot;&gt;&lt;div style=&quot;line-height: 18px;&quot;&gt;&lt;div style=&quot;line-height: 18px;&quot;&gt;Кирпичик&amp;nbsp;&lt;/div&gt;&lt;div style=&quot;line-height: 18px;&quot;&gt;20.10.6&lt;/div&gt;&lt;/div&gt;&lt;/div&gt;&lt;/div&gt;" style="ellipse;whiteSpace=wrap;html=1;fillColor=#d5e8d4;strokeColor=#82b366;" vertex="1" parent="1">
          <mxGeometry x="400" y="440" width="80" height="80" as="geometry" />
        </mxCell>
        <mxCell id="qLjjrkmF7zRDrsset7Vm-28" value="&lt;div style=&quot;line-height: 18px;&quot;&gt;&lt;div style=&quot;line-height: 18px;&quot;&gt;&lt;div style=&quot;line-height: 18px;&quot;&gt;Новый&lt;/div&gt;&lt;div style=&quot;line-height: 18px;&quot;&gt;город&lt;/div&gt;&lt;/div&gt;&lt;/div&gt;" style="ellipse;whiteSpace=wrap;html=1;fillColor=#e1d5e7;strokeColor=#9673a6;" vertex="1" parent="1">
          <mxGeometry x="300" y="445" width="90" height="70" as="geometry" />
        </mxCell>
        <mxCell id="qLjjrkmF7zRDrsset7Vm-29" value="" style="endArrow=none;html=1;rounded=0;exitX=0.342;exitY=0.98;exitDx=0;exitDy=0;entryX=0.5;entryY=0;entryDx=0;entryDy=0;exitPerimeter=0;" edge="1" parent="1" source="qLjjrkmF7zRDrsset7Vm-20" target="qLjjrkmF7zRDrsset7Vm-28">
          <mxGeometry relative="1" as="geometry">
            <mxPoint x="278" y="415" as="sourcePoint" />
            <mxPoint x="236" y="449" as="targetPoint" />
          </mxGeometry>
        </mxCell>
        <mxCell id="qLjjrkmF7zRDrsset7Vm-30" value="" style="endArrow=none;html=1;rounded=0;exitX=0.5;exitY=1;exitDx=0;exitDy=0;entryX=0.5;entryY=0;entryDx=0;entryDy=0;" edge="1" parent="1" source="qLjjrkmF7zRDrsset7Vm-20" target="qLjjrkmF7zRDrsset7Vm-27">
          <mxGeometry relative="1" as="geometry">
            <mxPoint x="411" y="419" as="sourcePoint" />
            <mxPoint x="355" y="455" as="targetPoint" />
          </mxGeometry>
        </mxCell>
        <mxCell id="qLjjrkmF7zRDrsset7Vm-31" value="" style="endArrow=none;html=1;rounded=0;exitX=0.5;exitY=1;exitDx=0;exitDy=0;entryX=0.265;entryY=0.047;entryDx=0;entryDy=0;entryPerimeter=0;" edge="1" parent="1" source="qLjjrkmF7zRDrsset7Vm-20" target="qLjjrkmF7zRDrsset7Vm-26">
          <mxGeometry relative="1" as="geometry">
            <mxPoint x="425" y="420" as="sourcePoint" />
            <mxPoint x="450" y="450" as="targetPoint" />
          </mxGeometry>
        </mxCell>
        <mxCell id="qLjjrkmF7zRDrsset7Vm-32" value="" style="endArrow=none;html=1;rounded=0;exitX=0.5;exitY=1;exitDx=0;exitDy=0;entryX=0.37;entryY=0.028;entryDx=0;entryDy=0;entryPerimeter=0;" edge="1" parent="1" source="qLjjrkmF7zRDrsset7Vm-20" target="qLjjrkmF7zRDrsset7Vm-25">
          <mxGeometry relative="1" as="geometry">
            <mxPoint x="425" y="420" as="sourcePoint" />
            <mxPoint x="600" y="440" as="targetPoint" />
          </mxGeometry>
        </mxCell>
        <mxCell id="qLjjrkmF7zRDrsset7Vm-33" value="&lt;div style=&quot;line-height: 18px;&quot;&gt;&lt;div style=&quot;line-height: 18px;&quot;&gt;&lt;div style=&quot;line-height: 18px;&quot;&gt;&lt;div style=&quot;line-height: 18px;&quot;&gt;Новый&amp;nbsp;&lt;/div&gt;&lt;div style=&quot;line-height: 18px;&quot;&gt;город&amp;nbsp;наши&lt;/div&gt;&lt;/div&gt;&lt;/div&gt;&lt;/div&gt;" style="ellipse;whiteSpace=wrap;html=1;fillColor=#d5e8d4;strokeColor=#82b366;" vertex="1" parent="1">
          <mxGeometry x="260" y="545" width="80" height="80" as="geometry" />
        </mxCell>
        <mxCell id="qLjjrkmF7zRDrsset7Vm-34" value="&lt;div style=&quot;line-height: 18px;&quot;&gt;&lt;div style=&quot;line-height: 18px;&quot;&gt;&lt;div style=&quot;line-height: 18px;&quot;&gt;&lt;div style=&quot;line-height: 18px;&quot;&gt;ПАЛЕРМО&lt;/div&gt;&lt;/div&gt;&lt;/div&gt;&lt;/div&gt;" style="ellipse;whiteSpace=wrap;html=1;fillColor=#d5e8d4;strokeColor=#82b366;" vertex="1" parent="1">
          <mxGeometry x="360" y="545" width="80" height="80" as="geometry" />
        </mxCell>
        <mxCell id="qLjjrkmF7zRDrsset7Vm-35" value="" style="endArrow=none;html=1;rounded=0;exitX=0.5;exitY=1;exitDx=0;exitDy=0;entryX=0.5;entryY=0;entryDx=0;entryDy=0;" edge="1" parent="1" source="qLjjrkmF7zRDrsset7Vm-28" target="qLjjrkmF7zRDrsset7Vm-33">
          <mxGeometry relative="1" as="geometry">
            <mxPoint x="278" y="415" as="sourcePoint" />
            <mxPoint x="236" y="449" as="targetPoint" />
          </mxGeometry>
        </mxCell>
        <mxCell id="qLjjrkmF7zRDrsset7Vm-36" value="" style="endArrow=none;html=1;rounded=0;exitX=0.5;exitY=1;exitDx=0;exitDy=0;entryX=0.253;entryY=0.025;entryDx=0;entryDy=0;entryPerimeter=0;" edge="1" parent="1" source="qLjjrkmF7zRDrsset7Vm-28" target="qLjjrkmF7zRDrsset7Vm-34">
          <mxGeometry relative="1" as="geometry">
            <mxPoint x="355" y="525" as="sourcePoint" />
            <mxPoint x="310" y="555" as="targetPoint" />
          </mxGeometry>
        </mxCell>
        <mxCell id="qLjjrkmF7zRDrsset7Vm-37" value="&lt;b&gt;&lt;font color=&quot;#3399ff&quot;&gt;ROOT&lt;/font&gt;&lt;/b&gt;" style="label;fontStyle=0;strokeColor=none;fillColor=none;align=left;verticalAlign=top;overflow=hidden;spacingLeft=28;spacingRight=4;rotatable=0;points=[[0,0.5],[1,0.5]];portConstraint=eastwest;imageWidth=16;imageHeight=16;whiteSpace=wrap;html=1;image=img/clipart/Gear_128x128.png" vertex="1" parent="1">
          <mxGeometry x="350" y="20" width="120" height="26" as="geometry" />
        </mxCell>
        <mxCell id="qLjjrkmF7zRDrsset7Vm-38" value="&lt;b&gt;&lt;font color=&quot;#ff9933&quot;&gt;FOLDERS&lt;/font&gt;&lt;/b&gt;" style="label;fontStyle=0;strokeColor=none;fillColor=none;align=left;verticalAlign=top;overflow=hidden;spacingLeft=28;spacingRight=4;rotatable=0;points=[[0,0.5],[1,0.5]];portConstraint=eastwest;imageWidth=16;imageHeight=16;whiteSpace=wrap;html=1;image=img/clipart/Gear_128x128.png" vertex="1" parent="1">
          <mxGeometry x="220" y="240" width="120" height="26" as="geometry" />
        </mxCell>
        <mxCell id="qLjjrkmF7zRDrsset7Vm-39" value="&lt;b&gt;&lt;font color=&quot;#00cc00&quot;&gt;LEAF&lt;/font&gt;&lt;/b&gt;" style="label;fontStyle=0;strokeColor=none;fillColor=none;align=left;verticalAlign=top;overflow=hidden;spacingLeft=28;spacingRight=4;rotatable=0;points=[[0,0.5],[1,0.5]];portConstraint=eastwest;imageWidth=16;imageHeight=16;whiteSpace=wrap;html=1;image=img/clipart/Gear_128x128.png" vertex="1" parent="1">
          <mxGeometry x="180" y="572" width="120" height="26" as="geometry" />
        </mxCell>
      </root>
    </mxGraphModel>
  </diagram>
</mxfile>
